<svg xmlns="http://www.w3.org/2000/svg" viewBox="0 0 94.93 94.93"><g id="Layer_2" data-name="Layer 2"><g id="Layer_1-2" data-name="Layer 1"><rect width="94.93" height="94.93" style="fill:none"/><rect x="44.19" y="39.95" width="6.56" height="50.12" style="fill:#999"/><path d="M50.75,42.63c0,2.69-6.56,2.69-6.56,0V33.52h6.56Z" style="fill:#7a7a7a"/><path d="M40.2,20.11a20.44,20.44,0,0,0,6.47,14.94,1.18,1.18,0,0,0,1.59,0,20.48,20.48,0,0,0,0-29.88,1.18,1.18,0,0,0-1.59,0A20.44,20.44,0,0,0,40.2,20.11Z" style="fill:#999"/><path d="M53.41,27.37a20.31,20.31,0,0,0,.92-3.23l-5.86-8.45a1.12,1.12,0,0,0-2,0l-5.88,8.48a19.53,19.53,0,0,0,.89,3.12l5.2-4.61a1,1,0,0,1,1.46,0Z" style="fill:#bababa"/><path d="M62.72,28.09a20.4,20.4,0,0,0-14.94,6.48,1.15,1.15,0,0,0,0,1.58,20.45,20.45,0,0,0,29.87,0,1.15,1.15,0,0,0,0-1.58A20.38,20.38,0,0,0,62.72,28.09Z" style="fill:#999"/><path d="M55.45,41.3a20.62,20.62,0,0,0,3.23.92l8.46-5.86a1.12,1.12,0,0,0,0-2L58.65,28.5a20.18,20.18,0,0,0-3.11.89l4.6,5.2a1.05,1.05,0,0,1,0,1.47Z" style="fill:#bababa"/><path d="M32.22,42.63a20.42,20.42,0,0,0,14.94-6.48,1.17,1.17,0,0,0,0-1.58,20.46,20.46,0,0,0-29.88,0,1.17,1.17,0,0,0,0,1.58A20.42,20.42,0,0,0,32.22,42.63Z" style="fill:#999"/><path d="M39.48,29.42a20.62,20.62,0,0,0-3.23-.92L27.8,34.36a1.11,1.11,0,0,0,0,2l8.48,5.89a20.18,20.18,0,0,0,3.11-.89l-4.6-5.2a1,1,0,0,1,0-1.47Z" style="fill:#bababa"/><path d="M52.05,21.13c-.23.1-.11.65.12,1.5a7.35,7.35,0,0,0-.86-.9C50.44,20,49.42,19.08,49,19.34c-.19.12-.08.53.16,1.14a5.39,5.39,0,0,0-1.65-.28,5.13,5.13,0,0,0-1.83.35c.26-.66.38-1.08.18-1.21-.4-.27-1.52.76-2.42,2.68a8.74,8.74,0,0,0-.79.91c.28-1,.45-1.69.2-1.8-.78-.32-3.33,4-2.64,9.43.61,4.76,4,8,4.67,7.83h0a5.29,5.29,0,0,0,2.61.7,5.34,5.34,0,0,0,2.61-.7,3.58,3.58,0,0,0,1.41-1.07,9.06,9.06,0,0,0,1.81-2.61,12.59,12.59,0,0,0,1.31-4.14C55.38,25.13,52.83,20.81,52.05,21.13Z" style="fill:#e2e2e2"/></g></g></svg>