<svg xmlns="http://www.w3.org/2000/svg" viewBox="0 0 43.53 58.52"><defs><style>.cls-1{fill:#fff;}</style></defs><g id="Layer_2" data-name="Layer 2"><g id="Layer_1-2" data-name="Layer 1"><path class="cls-1" d="M43.23,20.08a8.15,8.15,0,0,0-3.72-5A9.59,9.59,0,0,0,34,13.85,10.82,10.82,0,0,0,30,15a24.13,24.13,0,0,0-3.2,2.15h0c.47-.59.94-1.2,1.4-1.84a12.24,12.24,0,0,0,2.12-4.55,9.87,9.87,0,0,0-.5-5.57A8.37,8.37,0,0,0,25.49.76a9,9,0,0,0-3-.74,9.25,9.25,0,0,0-3,.28,8.18,8.18,0,0,0-5,3.72,9.59,9.59,0,0,0-1.27,5.54,10.89,10.89,0,0,0,1.19,4,24.13,24.13,0,0,0,2.15,3.2l.33.41c-.49-.39-1-.77-1.51-1.14a11.94,11.94,0,0,0-4.55-2.12,9.86,9.86,0,0,0-5.57.49A8.37,8.37,0,0,0,.76,18.7a9,9,0,0,0-.74,3,9.23,9.23,0,0,0,.28,3,8.18,8.18,0,0,0,3.72,5A9.59,9.59,0,0,0,9.56,31a10.89,10.89,0,0,0,4-1.19,24.13,24.13,0,0,0,3.2-2.15c1-.77,1.93-1.52,2.8-2.35l.88-.82a34.64,34.64,0,0,0-1,6.57c-.25,3.05-.41,6.1-.5,9.15l-.3,9.16c-.1,3.05-.22,6.1-.19,9.15H25c0-3.05-.09-6.1-.19-9.15l-.3-9.16c-.08-3.05-.24-6.1-.5-9.15a34.89,34.89,0,0,0-.95-6.52,44.11,44.11,0,0,0,5.09,4.26,11.91,11.91,0,0,0,4.56,2.12,9.88,9.88,0,0,0,5.57-.49,8.39,8.39,0,0,0,4.46-4.28,8.74,8.74,0,0,0,.74-3A9.23,9.23,0,0,0,43.23,20.08ZM18.14,9.56a6.34,6.34,0,0,1,.91-2.7,2.93,2.93,0,0,1,1.77-1.33,3.15,3.15,0,0,1,1.24-.11,3.74,3.74,0,0,1,1.13.3A3.58,3.58,0,0,1,24.7,7.4a7.46,7.46,0,0,1,.65,2.9A15.58,15.58,0,0,1,25.13,14a13.56,13.56,0,0,1-1.41,3.87,17.41,17.41,0,0,1-1.95,3,20.14,20.14,0,0,1-1.6-2.27,19.61,19.61,0,0,1-1.43-3.05,14.16,14.16,0,0,1-.64-3.17A16.54,16.54,0,0,1,18.14,9.56ZM18.62,24a19.61,19.61,0,0,1-3.05,1.43,13.62,13.62,0,0,1-3.17.64,17.69,17.69,0,0,1-2.84,0,6.48,6.48,0,0,1-2.7-.92,2.93,2.93,0,0,1-1.33-1.77,3.15,3.15,0,0,1-.11-1.24A3.74,3.74,0,0,1,5.72,21,3.58,3.58,0,0,1,7.4,19.49a7.65,7.65,0,0,1,2.9-.65,16.16,16.16,0,0,1,3.71.23,13.24,13.24,0,0,1,3.87,1.4,18,18,0,0,1,3,2A20.14,20.14,0,0,1,18.62,24Zm19.49-1.3a3.24,3.24,0,0,1-.3,1.13,3.63,3.63,0,0,1-1.68,1.51,7.59,7.59,0,0,1-2.89.65,16.22,16.22,0,0,1-3.72-.23,13.45,13.45,0,0,1-3.87-1.4,17.54,17.54,0,0,1-3-1.95,20,20,0,0,1,2.26-1.6A19.61,19.61,0,0,1,28,19.4a13.6,13.6,0,0,1,3.18-.64,17.57,17.57,0,0,1,2.83,0,6.43,6.43,0,0,1,2.7.92A3,3,0,0,1,38,21.48,3.35,3.35,0,0,1,38.11,22.72Z"/></g></g></svg>