<svg xmlns="http://www.w3.org/2000/svg" viewBox="0 0 45.92 60.33"><g id="Layer_2" data-name="Layer 2"><g id="Layer_1-2" data-name="Layer 1"><path d="M35.42,13.23a13.91,13.91,0,0,0-3.1.37,13.89,13.89,0,0,0,.37-3.09C32.69,4.42,28.6,0,23,0s-9.73,4.42-9.73,10.51a13.89,13.89,0,0,0,.37,3.09,13.89,13.89,0,0,0-3.09-.37C4.42,13.23,0,17.32,0,23s4.42,9.73,10.51,9.73a18.71,18.71,0,0,0,9.36-3c0,.86-.05,1.72-.08,2.58l-.39,9.34L19,51l-.51,9.34h9L27,51l-.43-9.35-.39-9.34c0-.86-.05-1.72-.08-2.58a18.72,18.72,0,0,0,9.37,3c6.08,0,10.5-4.09,10.5-9.73S41.5,13.23,35.42,13.23ZM23,7c2.53,0,2.73,2.68,2.73,3.51,0,2.31-1.34,4.9-2.73,6.92-1.39-2-2.73-4.61-2.73-6.92C20.23,9.68,20.43,7,23,7ZM10.51,25.69C9.68,25.69,7,25.49,7,23s2.68-2.73,3.51-2.73c2.31,0,4.9,1.34,6.92,2.73C15.41,24.35,12.82,25.69,10.51,25.69Zm24.91,0c-2.32,0-4.91-1.34-6.93-2.73,2-1.39,4.61-2.73,6.93-2.73.82,0,3.5.2,3.5,2.73S36.24,25.69,35.42,25.69Z"/></g></g></svg>