<svg xmlns="http://www.w3.org/2000/svg" viewBox="0 0 94.93 94.93"><g id="Layer_2" data-name="Layer 2"><g id="Layer_1-2" data-name="Layer 1"><rect width="94.93" height="94.93" style="fill:none"/><path d="M81.22,32.11c0-12-15.11-21.8-33.75-21.8s-33.76,9.76-33.76,21.8a14.47,14.47,0,0,0,1.11,5.55h0c.49,3.48,14.86,6.26,32.54,6.26s32.05-2.78,32.54-6.26h.19A14.47,14.47,0,0,0,81.22,32.11Z" style="fill:#afafaf"/><path d="M47.38,43.92c-4.38,0-8.55-.17-12.37-.48-2,12.81-4.41,25.82-2.57,39h0c0,1.65,6.79,3,15.17,3s15.17-1.35,15.17-3h0c1.29-13.84-1.1-26.94-2.62-39C56.23,43.74,51.92,43.92,47.38,43.92Z" style="fill:#999"/><path d="M47.38,52.74a60.75,60.75,0,0,0,13.83-1.4c-.36-2.69-.73-5.34-1.05-7.93-3.93.33-8.24.51-12.78.51-4.38,0-8.55-.17-12.37-.48-.42,2.63-.85,5.27-1.26,7.92A60.48,60.48,0,0,0,47.38,52.74Z" style="fill:#7a7a7a"/><ellipse cx="41.04" cy="20.85" rx="4.11" ry="2.57" transform="translate(-3.94 11.07) rotate(-14.66)" style="fill:#f4eae4"/><ellipse cx="76.92" cy="26.87" rx="1.1" ry="2.8" transform="translate(-4.05 36) rotate(-25.69)" style="fill:#f4eae4"/><ellipse cx="53.53" cy="26.21" rx="3.76" ry="4.54" transform="translate(15.15 71.81) rotate(-76)" style="fill:#f4eae4"/></g></g></svg>