<svg xmlns="http://www.w3.org/2000/svg" viewBox="0 0 94.93 94.93"><defs><style>.cls-1{fill:none;}.cls-2{fill:#f94230;}.cls-3{fill:#a38066;}.cls-4{fill:#84644e;}.cls-5{fill:#f4eae4;}</style></defs><g id="Layer_2" data-name="Layer 2"><g id="Layer_1-2" data-name="Layer 1"><rect class="cls-1" width="94.93" height="94.93"/><path class="cls-2" d="M81.22,31.91c0-12-15.11-21.8-33.75-21.8s-33.76,9.76-33.76,21.8a14.47,14.47,0,0,0,1.11,5.55h0c.49,3.47,14.86,6.26,32.54,6.26s32.05-2.79,32.54-6.26h.19A14.47,14.47,0,0,0,81.22,31.91Z"/><path class="cls-3" d="M47.38,43.72c-4.38,0-8.55-.17-12.37-.48-2,12.81-4.41,25.82-2.57,39h0c0,1.65,6.79,3,15.17,3s15.17-1.35,15.17-3h0c1.29-13.83-1.1-26.93-2.62-39C56.23,43.54,51.92,43.72,47.38,43.72Z"/><path class="cls-4" d="M47.38,52.54a60.75,60.75,0,0,0,13.83-1.4c-.36-2.69-.73-5.34-1.05-7.94-3.93.34-8.24.52-12.78.52-4.38,0-8.55-.17-12.37-.48-.42,2.63-.85,5.27-1.26,7.92A60.48,60.48,0,0,0,47.38,52.54Z"/><ellipse class="cls-5" cx="63.41" cy="20.89" rx="1.75" ry="2.8" transform="translate(21.85 73.14) rotate(-69.73)"/><ellipse class="cls-5" cx="41.04" cy="20.89" rx="4.11" ry="2.57" transform="matrix(0.97, -0.25, 0.25, 0.97, -3.95, 11.07)"/><ellipse class="cls-5" cx="42.75" cy="12.73" rx="2.8" ry="1.1" transform="translate(-1.16 4.86) rotate(-6.42)"/><ellipse class="cls-5" cx="53.53" cy="26.26" rx="3.76" ry="4.54" transform="translate(15.1 71.85) rotate(-76)"/></g></g></svg>