<?xml version="1.0" encoding="UTF-8" standalone="no"?>
<!-- Created with Inkscape (http://www.inkscape.org/) -->

<svg
   width="128mm"
   height="128mm"
   viewBox="0 0 128 128"
   version="1.1"
   id="svg5"
   xml:space="preserve"
   xmlns="http://www.w3.org/2000/svg"
   xmlns:svg="http://www.w3.org/2000/svg"><defs
     id="defs2"><pattern
       id="EMFhbasepattern"
       patternUnits="userSpaceOnUse"
       width="6"
       height="6"
       x="0"
       y="0" /></defs><g
     id="layer1">
<style>
  @media (prefers-color-scheme: dark) {
    .a { fill: #f6f6f6 }
  }
</style>
<path class="a" fill="0f0f0f" d="m 109.75025,44.445621 a 17.36321,17.36321 0 0 0 -7.9253,-10.652271 20.431066,20.431066 0 0 0 -11.738803,-2.620464 23.051525,23.051525 0 0 0 -8.521818,2.450025 51.407883,51.407883 0 0 0 -6.817459,4.580477 v 0 c 1.001312,-1.256967 2.002625,-2.556546 2.98264,-3.920034 A 26.076772,26.076772 0 0 0 82.246069,24.589784 21.027593,21.027593 0 0 0 81.180847,12.72315 17.83191,17.83191 0 0 0 71.955975,3.2852265 19.174097,19.174097 0 0 0 65.564609,1.708695 19.70671,19.70671 0 0 0 59.173244,2.3051956 17.427124,17.427124 0 0 0 48.520965,10.230489 a 20.431066,20.431066 0 0 0 -2.705679,11.802724 23.200657,23.200657 0 0 0 2.53524,8.521818 51.407883,51.407883 0 0 0 4.580485,6.81746 l 0.70303,0.873485 c -1.043932,-0.830881 -2.13046,-1.640449 -3.216996,-2.428719 a 25.437635,25.437635 0 0 0 -9.69357,-4.516568 21.006288,21.006288 0 0 0 -11.866634,1.043925 17.83191,17.83191 0 0 0 -9.587048,9.160954 19.174097,19.174097 0 0 0 -1.57654,6.391366 19.664102,19.664102 0 0 0 0.596501,6.391366 17.427124,17.427124 0 0 0 7.925293,10.652278 20.431066,20.431066 0 0 0 11.802716,2.769589 23.200657,23.200657 0 0 0 8.521826,-2.53524 51.407883,51.407883 0 0 0 6.817452,-4.580477 c 2.13046,-1.640449 4.11178,-3.238295 5.96528,-5.006571 l 1.874797,-1.746971 a 73.798968,73.798968 0 0 0 -2.130452,13.997087 c -0.532647,6.497895 -0.873493,12.995782 -1.06523,19.493669 l -0.639097,19.514956 c -0.213059,6.4979 -0.468713,12.99579 -0.404779,19.49369 h 13.954482 c 0,-6.4979 -0.19172,-12.99579 -0.404779,-19.49369 L 69.868086,87.331664 C 69.697623,80.833777 69.356777,74.33589 68.802856,67.837995 a 74.331582,74.331582 0 0 0 -2.023931,-13.890566 93.97438,93.97438 0 0 0 10.844015,9.07574 25.373721,25.373721 0 0 0 9.714876,4.516567 21.048897,21.048897 0 0 0 11.866642,-1.043924 17.874519,17.874519 0 0 0 9.501832,-9.118351 18.620178,18.620178 0 0 0 1.57653,-6.391366 19.664102,19.664102 0 0 0 -0.53265,-6.540498 z M 56.297125,22.033238 a 13.507086,13.507086 0 0 1 1.938716,-5.752229 6.2422337,6.2422337 0 0 1 3.77091,-2.833507 6.7109339,6.7109339 0 0 1 2.641761,-0.234317 7.9679024,7.9679024 0 0 1 2.407413,0.639177 7.6270296,7.6270296 0 0 1 3.216989,3.579165 15.893196,15.893196 0 0 1 1.384795,6.178314 33.192492,33.192492 0 0 1 -0.468714,7.88269 28.888972,28.888972 0 0 1 -3.003946,8.244858 37.091225,37.091225 0 0 1 -4.154383,6.391365 42.907367,42.907367 0 0 1 -3.408734,-4.836132 41.778227,41.778227 0 0 1 -3.04655,-6.497887 30.167246,30.167246 0 0 1 -1.363488,-6.753541 35.237729,35.237729 0 0 1 0.08519,-6.007884 z m 1.022619,30.76377 a 41.778227,41.778227 0 0 1 -6.497887,3.046549 29.0168,29.0168 0 0 1 -6.753542,1.363497 37.687753,37.687753 0 0 1 -6.050495,0 13.80535,13.80535 0 0 1 -5.752229,-1.960021 6.2422337,6.2422337 0 0 1 -2.833507,-3.77091 6.7109339,6.7109339 0 0 1 -0.234317,-2.641762 7.9679024,7.9679024 0 0 1 0.639097,-2.428719 7.6270296,7.6270296 0 0 1 3.579164,-3.216988 16.297982,16.297982 0 0 1 6.178323,-1.384795 34.428156,34.428156 0 0 1 7.903988,0.489971 28.207226,28.207226 0 0 1 8.244865,2.98264 38.348193,38.348193 0 0 1 6.391366,4.260913 42.907367,42.907367 0 0 1 -4.814834,3.259593 z m 41.522578,-2.769589 a 6.9026748,6.9026748 0 0 1 -0.639096,2.407413 7.7335523,7.7335523 0 0 1 -3.579173,3.216988 16.170155,16.170155 0 0 1 -6.157009,1.384795 34.555983,34.555983 0 0 1 -7.925293,-0.489971 28.654622,28.654622 0 0 1 -8.244866,-2.98264 37.368184,37.368184 0 0 1 -6.391365,-4.154384 42.609104,42.609104 0 0 1 4.814826,-3.408733 41.778227,41.778227 0 0 1 6.58311,-3.003938 28.97419,28.97419 0 0 1 6.774848,-1.363497 37.432098,37.432098 0 0 1 6.029189,0 13.698827,13.698827 0 0 1 5.752229,1.960022 6.3913656,6.3913656 0 0 1 2.748292,3.834819 7.1370249,7.1370249 0 0 1 0.234316,2.641762 z"
       id="path3356"
       style="stroke-width:2.13045;" /></g></svg>
