<svg xmlns="http://www.w3.org/2000/svg" viewBox="0 0 38.9 52.96"><g id="Layer_2" data-name="Layer 2"><g id="Layer_1-2" data-name="Layer 1"><path d="M30.62,11.87a12.78,12.78,0,0,0-4.46.88A12.84,12.84,0,0,0,27,8.28C27,3.48,23.85,0,19.45,0s-7.58,3.48-7.58,8.28a12.84,12.84,0,0,0,.88,4.47,12.84,12.84,0,0,0-4.47-.88C3.48,11.87,0,15.06,0,19.45S3.48,27,8.28,27c3.44,0,6.77-1.74,9.14-3.38,0,4.18-.23,8.37-.36,12.55l-.27,8.37L16.45,53h6l-.33-8.38-.28-8.37c-.12-4.19-.32-8.37-.36-12.55C23.85,25.3,27.18,27,30.62,27c4.8,0,8.28-3.19,8.28-7.59S35.42,11.87,30.62,11.87ZM19.45,4C22.1,4,23,6.31,23,8.28c0,3.05-2.11,6.25-3.59,8.12-1.48-1.87-3.58-5.07-3.58-8.12C15.87,6.31,16.81,4,19.45,4ZM8.28,23C6.31,23,4,22.1,4,19.45s2.31-3.58,4.28-3.58c3.05,0,6.25,2.1,8.12,3.58C14.53,20.93,11.33,23,8.28,23Zm22.34,0c-3.05,0-6.25-2.11-8.12-3.59,1.87-1.48,5.07-3.58,8.12-3.58,2,0,4.28.94,4.28,3.58S32.6,23,30.62,23Z"/></g></g></svg>