<svg xmlns="http://www.w3.org/2000/svg" viewBox="0 0 137.49 144"><defs><style>.cls-1{fill:#ff9d27;}</style></defs><g id="Layer_2" data-name="Layer 2"><g id="Layer_1-2" data-name="Layer 1"><circle class="cls-1" cx="68.74" cy="72" r="41.2"/><path class="cls-1" d="M4,56.79l10.22,3.32A5.42,5.42,0,0,0,21,56.58l0-.12a5.43,5.43,0,0,0-3.44-6.89L7.25,46.19A5.55,5.55,0,0,0,.16,50.1,5.68,5.68,0,0,0,4,56.79Z"/><path class="cls-1" d="M39.23,31.49l.1-.07a5.43,5.43,0,0,0,1.26-7.59l-6.32-8.7a5.67,5.67,0,0,0-7.54-1.59,5.54,5.54,0,0,0-1.53,8l6.43,8.85A5.43,5.43,0,0,0,39.23,31.49Z"/><path class="cls-1" d="M68.74,21.88h.06a5.44,5.44,0,0,0,5.48-5.41V5.73A5.66,5.66,0,0,0,69.11,0,5.55,5.55,0,0,0,63.2,5.54V16.47a5.44,5.44,0,0,0,5.49,5.41Z"/><path class="cls-1" d="M123.27,60.11l10.21-3.32a5.67,5.67,0,0,0,3.84-6.69,5.54,5.54,0,0,0-7.08-3.91l-10.39,3.38a5.42,5.42,0,0,0-3.44,6.89l0,.12A5.43,5.43,0,0,0,123.27,60.11Z"/><path class="cls-1" d="M105.86,30.34l6.32-8.7a5.66,5.66,0,0,0-.83-7.66,5.52,5.52,0,0,0-8,1L96.9,23.83a5.42,5.42,0,0,0,1.26,7.59l.09.07A5.44,5.44,0,0,0,105.86,30.34Z"/><path class="cls-1" d="M31.63,113.66l-6.33,8.71a5.66,5.66,0,0,0,.81,7.63,5.52,5.52,0,0,0,8-1l6.43-8.85a5.43,5.43,0,0,0-1.26-7.59l-.1-.07A5.43,5.43,0,0,0,31.63,113.66Z"/><path class="cls-1" d="M133.48,87.21l-10.21-3.32a5.43,5.43,0,0,0-6.83,3.53l0,.12a5.42,5.42,0,0,0,3.44,6.89l10.39,3.38a5.7,5.7,0,0,0,1.71.27,5.55,5.55,0,0,0,5.37-4.18A5.67,5.67,0,0,0,133.48,87.21Z"/><path class="cls-1" d="M98.25,112.51l-.09.07a5.42,5.42,0,0,0-1.26,7.59l6.43,8.85a5.52,5.52,0,0,0,8,1,5.64,5.64,0,0,0,.8-7.63l-6.32-8.71A5.44,5.44,0,0,0,98.25,112.51Z"/><path class="cls-1" d="M14.22,83.89,4,87.21A5.65,5.65,0,0,0,.17,93.9a5.54,5.54,0,0,0,5.36,4.18,5.71,5.71,0,0,0,1.72-.27l10.39-3.38a5.43,5.43,0,0,0,3.44-6.89l0-.12A5.42,5.42,0,0,0,14.22,83.89Z"/><path class="cls-1" d="M68.74,122.12h0a5.44,5.44,0,0,0-5.49,5.41v10.74A5.67,5.67,0,0,0,68.37,144a5.54,5.54,0,0,0,5.91-5.53V127.53a5.44,5.44,0,0,0-5.48-5.41Z"/></g></g></svg>